<?xml version="1.0" encoding="UTF-8"?> <!-- Generator: Adobe Illustrator 24.2.1, SVG Export Plug-In . SVG Version: 6.00 Build 0) --> <svg xmlns="http://www.w3.org/2000/svg" xmlns:xlink="http://www.w3.org/1999/xlink" id="Слой_1" x="0px" y="0px" viewBox="0 0 539.59 537.64" style="enable-background:new 0 0 539.59 537.64;" xml:space="preserve"> <style type="text/css"> .st0{fill:#1D4687;} </style> <g> <path class="st0" d="M447.03,395.73c-14.5-10.44-28.99-20.89-46.76-24.94c-12-2.81-24.31-2.96-34.6,4.99 c-11.22,8.73-21.35,18.86-32.58,27.74c-3.58,2.96-8.57,4.99-13.09,5.61c-11.69,1.4-22.13-3.43-31.48-9.35 c-15.12-9.66-30.24-19.79-43.49-31.64c-21.66-19.48-42.08-40.52-62.66-61.41c-8.73-8.88-16.83-18.55-24.63-28.21 c-11.22-14.03-21.04-28.99-27.43-45.98c-2.81-7.64-1.4-19.95,4.21-25.87c7.79-8.42,16.05-16.52,23.22-25.41 c12.16-14.96,15.12-31.95,7.17-49.56c-11.22-25.09-26.65-47.54-47.85-65.15c-6.55-5.46-14.65-9.98-22.91-12.47 c-15.43-4.68-30.08,0.16-42.08,9.98C38.83,74.97,26.83,87.28,14.52,99.28c-7.01,6.86-11.07,15.43-12.94,25.09 c-2.18,11.69-1.87,23.38-0.47,35.38c2.49,20.26,8.73,39.28,16.05,57.82c7.95,20.11,17.46,39.28,28.52,57.98 c14.81,25.09,32.26,48.16,49.88,71.07c6.7,8.73,14.03,16.83,21.51,24.94c23.07,25.09,47.38,48.78,73.88,70.29 c10.6,8.57,21.82,16.21,32.73,24.31c28.68,21.35,59.69,38.97,92.89,52.21c12.94,5.14,26.5,8.57,39.59,13.09 c13.09,4.52,26.5,6.55,41.61,6.08c2.34,0,6.08,0.16,9.82,0c9.51-0.47,18.86-2.65,26.18-8.57c17.61-14.18,34.29-29.46,46.13-49.1 c11.22-18.55,10.6-37.09-2.65-54.86C469.01,413.34,458.56,404.15,447.03,395.73z"></path> <path class="st0" d="M536.49,237.07c-2.65-14.5-6.55-28.68-11.69-42.55c-7.33-20.11-16.83-38.65-28.37-56.58 c-12.31-18.86-26.65-36.32-42.39-52.21c-17.46-17.61-36.63-33.35-57.67-46.29c-21.98-13.56-45.04-24.47-70.29-31.17 C307.53,3.27,288.83,0,269.66,0c-1.25,0-2.49,0-3.74,0c-11.53,0-23.07-0.16-33.51,5.77c-12.31,7.01-15.74,19.17-12,32.11 c3.9,13.4,14.81,19.48,28.83,19.02c15.12-0.47,30.24-1.4,45.51,1.4c19.79,3.58,38.03,10.44,55.64,19.48 c23.22,12,43.64,28.06,62.34,46.45c16.37,16.21,31.02,33.82,42.86,53.77c5.77,9.66,11.53,19.64,15.27,30.08 c4.68,12.78,7.79,26.34,10.91,39.74c2.65,11.85,2.81,23.85,0.94,35.85c-1.4,8.73-0.31,16.68,4.21,24.31 c9.66,16.68,37.41,17.14,46.76-1.25c3.43-6.7,5.14-14.81,5.61-22.29C540.08,268.39,539.3,252.65,536.49,237.07z"></path> <path class="st0" d="M266.85,158.36c5.14,0.78,10.44,1.87,15.27,3.74c9.35,3.58,18.55,7.64,27.74,11.53 c13.09,5.46,23.22,15.12,32.89,24.78c8.42,8.42,14.81,18.7,21.51,28.83c7.17,10.91,11.07,23.07,13.72,35.85 c2.18,10.44,4.52,20.89,15.12,27.28c8.88,5.3,19.33,6.08,28.83,0.47c10.6-6.23,15.12-18.86,14.03-27.9 c-1.09-8.57-3.43-16.99-6.08-25.09c-5.3-16.52-12.16-32.26-21.51-46.91c-8.88-13.87-19.17-26.5-31.17-37.72 c-13.4-12.62-28.37-23.54-44.73-31.48c-13.4-6.39-27.9-10.6-42.08-15.27c-5.3-1.71-10.91-2.34-17.46-3.74 c-2.34,0.62-5.46,1.56-8.73,2.34c-13.4,3.27-20.42,16.37-19.95,27.28C244.72,144.95,254.54,156.64,266.85,158.36z"></path> </g> </svg> 