<?xml version="1.0" encoding="UTF-8"?> <!-- Generator: Adobe Illustrator 26.4.1, SVG Export Plug-In . SVG Version: 6.00 Build 0) --> <svg xmlns="http://www.w3.org/2000/svg" xmlns:xlink="http://www.w3.org/1999/xlink" id="Слой_1" x="0px" y="0px" viewBox="0 0 618.6 619.9" style="enable-background:new 0 0 618.6 619.9;" xml:space="preserve"> <style type="text/css"> .st0{fill:#29A61A;} .st1{fill:#F7FCF6;} .st2{fill:#FFFFFF;} </style> <g> <path class="st0" d="M490.2,619.9H129.7C58.1,619.9,0,561.8,0,490.2V129.7C0,58.1,58.1,0,129.7,0h360.5 c71.6,0,129.7,58.1,129.7,129.7v360.5C619.9,561.8,561.8,619.9,490.2,619.9z"></path> <g> <g> <path class="st1" d="M439,188c-8-21.9-20.9-40.3-38.5-55.5c-22.2-19.2-48-30-77.2-32.3c-32.8-2.6-62.7,5.6-89.5,24.8 c-32,23-50.7,54.4-55.6,93.4c-3.5,27.6,1.1,54.2,14.5,78.9c2.6,4.8,3.7,8.8,1.7,14.2c-5.6,15.3-10.6,30.8-15.8,46.3 c-2,6-3.9,11.9-6,18.2c1.1,0,1.7,0.1,2.2,0c21.9-7,43.9-14.1,65.8-21c3.1-1,6.1-2.5,9.6-0.5c10.2,5.6,21.1,9.5,32.4,12 c30.4,6.6,60,3.7,87.9-9.9c33.7-16.4,57.3-42.5,69.5-78.1C450.5,248.3,450,218.1,439,188z M424.6,251.5 c-3.5,23.4-13.5,43.8-29.8,61.1c-14.8,15.7-32.7,26.4-53.5,31.9c-17.1,4.5-34.4,5.1-51.9,1.4c-13.3-2.8-25.6-7.9-37.3-14.7 c-1.6-1-4.4-1-6.3-0.4c-11.4,3.5-22.7,7.3-34.1,11c-1.4,0.5-2.8,0.7-5.4,1.4c2.3-7,4.2-13,6.3-18.9c2.2-6.6,4.7-13.1,6.7-19.8 c0.5-1.7,0-4.3-1-5.8c-15.5-23.5-22.1-49.2-18.7-77.2c3.2-26.8,14.5-49.8,34.2-68.3c29.2-27.5,63.8-37.2,102.8-29 c33.3,7,58.4,26.2,75.1,55.9C424.1,202.3,428.5,226.3,424.6,251.5z"></path> <path class="st1" d="M377.7,263.7c-8.4-4-16.8-8.1-25.3-12c-4.3-2-7.1-0.8-9.9,3.1c-2.4,3.5-5.1,6.8-7.7,10.1 c-2.2,2.7-5,3.1-8.1,1.9c-19.5-7.6-34.2-20.9-45-38.7c-1.6-2.7-1.5-5.1,0.7-7.5c2.7-3.1,5.3-6.3,7.9-9.5c1.8-2.3,1.7-4.7,0.6-7.3 c-2.9-6.9-5.4-13.9-8.5-20.7c-1.5-3.3-3.2-7.8-6-8.9c-6-2.4-12.6-1.9-17.9,2.8c-8.3,7.2-12.2,16.4-11.9,28 c-0.5,8.4,2.4,16.6,6.9,23.8c6,9.5,12.6,18.8,19.8,27.5c18.2,21.9,41.6,35.5,69.5,41.4c14.4,3,37.3-4.8,38.2-26.8 C381.2,267.7,380.7,265.2,377.7,263.7z"></path> </g> <g> <path class="st2" d="M126.5,477.4c-0.1,0-0.2,0-0.3,0c-4.4-17.9-8.9-35.8-13.3-53.7c-5.4,0-10.7,0-16.1,0 c-4.5,17.7-9,35.4-13.5,53.1c-0.1,0-0.2,0-0.3,0c-4.1-17.7-8.3-35.4-12.4-53.1c-5.8,0-11.4,0-17.2,0 c6.9,26.2,13.8,52.2,20.7,78.2c5.9,0,11.7,0,17.5,0c4.3-17.7,8.7-35.4,13-53.1c0.1,0,0.2,0,0.3,0c4.4,17.7,8.8,35.4,13.2,53.1 c5.8,0,11.4,0,17.1,0c7-26,14-52,21-78.1c-5.7,0-11.3,0-16.9,0C135.1,441.6,130.8,459.5,126.5,477.4z"></path> <path class="st2" d="M397.3,423.6c-9.9,26-19.7,52-29.6,78.1c5.9,0,11.6,0,17.3,0c2-5.8,4.1-11.5,6.1-17.3c9.8,0,19.5,0,29.3,0 c2,5.8,3.9,11.5,5.9,17.3c6,0,11.8,0,17.9,0c-9.8-26.2-19.5-52.2-29.3-78.1C409,423.6,403.2,423.6,397.3,423.6z M395.7,471.5 c3.4-9.6,6.8-19.1,10.1-28.5c0.1,0,0.2,0,0.3,0c3.3,9.5,6.5,19,9.8,28.5C409.1,471.5,402.5,471.5,395.7,471.5z"></path> <path class="st2" d="M499.3,454.5c-5.5-8.2-13.3-11.5-22.9-10.8c-5.8,0.5-10.8,2.9-14.1,7.9c-0.2,0.2-0.2,0.5-0.3,0.8 c-0.2-0.1-0.3-0.2-0.5-0.3c0-2.3,0-4.6,0-6.9c-5,0-9.8,0-14.7,0c0,25.5,0,50.9,0,76.3c5.2,0,10.3,0,15.6,0c0-8.9,0-17.7,0-26.9 c0.5,0.6,0.8,0.9,1,1.3c1.8,2.3,4,4.1,6.6,5.2c10.7,4.8,25,1.5,31.2-11.7c3.1-6.7,3.8-13.8,2.9-21 C503.4,463.5,502.1,458.7,499.3,454.5z M486.6,484.6c-2.3,4.6-6.1,7-11.3,7c-5.2,0-9.3-2.2-11.4-6.9c-3.4-7.5-3.4-15.3,0.2-22.8 c2.1-4.4,6-6.5,10.9-6.5c4.8,0,8.4,2.1,10.9,6.2c2.3,3.8,2.8,8,2.8,12.1C488.6,477.6,488.4,481.3,486.6,484.6z"></path> <path class="st2" d="M566.2,468.4c-0.6-5-1.9-9.7-4.7-13.9c-5.5-8.2-13.3-11.5-22.9-10.8c-5.8,0.5-10.8,2.9-14.1,7.9 c-0.2,0.2-0.2,0.5-0.3,0.8c-0.2-0.1-0.3-0.2-0.5-0.3c0-2.3,0-4.6,0-6.9c-5,0-9.8,0-14.7,0c0,25.5,0,50.9,0,76.3 c5.2,0,10.3,0,15.6,0c0-8.9,0-17.7,0-26.9c0.5,0.6,0.8,0.9,1,1.3c1.8,2.3,4,4.1,6.6,5.2c10.7,4.8,25,1.5,31.2-11.7 C566.4,482.7,567.1,475.7,566.2,468.4z M548.8,484.6c-2.3,4.6-6.1,7-11.3,7c-5.2,0-9.3-2.2-11.4-6.9c-3.4-7.5-3.4-15.3,0.2-22.8 c2.1-4.4,6-6.5,10.9-6.5c4.8,0,8.4,2.1,10.9,6.2c2.3,3.8,2.8,8,2.8,12.1C550.8,477.6,550.5,481.3,548.8,484.6z"></path> <path class="st2" d="M212.3,458.9c-0.5-4.6-2.4-8.7-6.3-11.5c-3.5-2.6-7.5-3.4-11.8-3.6c-7.5-0.3-13.6,2.3-18,8.6 c-0.2,0.3-0.4,0.5-0.8,1c0-10.1,0-19.8,0-29.6c-5.2,0-10.3,0-15.5,0c0,26.1,0,52.1,0,78.1c5.2,0,10.3,0,15.5,0c0-0.5,0-0.8,0-1.1 c0-7.8-0.1-15.7,0-23.5c0-3.9,0.1-7.9,0.6-11.8c0.6-4.4,2.8-7.9,7.5-8.9c1.9-0.4,4-0.5,6-0.3c3.2,0.3,5.6,1.9,6.5,5 c0.7,2.6,1.3,5.3,1.3,7.9c0.1,10.4,0.1,20.7,0.1,31.1c0,0.5,0,1.1,0,1.7c5,0,9.9,0,14.7,0c0.2,0,0.5,0,0.9-0.1 c0-0.4,0.1-0.7,0.1-0.9c0-9.3,0.1-18.7,0-28C212.9,468.2,212.8,463.5,212.3,458.9z"></path> <path class="st2" d="M273,460.5c0-5.4-1.6-9.9-6.4-12.7c-2-1.2-4.2-2.2-6.5-2.8c-6.6-1.6-13.3-1.8-20-0.7 c-4.8,0.8-9.2,2.4-12.9,5.7c-3.7,3.3-5.5,7.5-5.8,12.5c5.2,0,10.2,0,15.5,0c0.1-0.5,0.1-0.9,0.2-1.3c0.4-1.8,1.1-3.5,2.5-4.8 c3.2-2.9,11.9-3.1,15.3-0.5c2.3,1.9,2.7,4.4,2.3,7.1c-0.3,2.3-2,3.2-3.9,3.8c-1.9,0.6-3.8,1-5.8,1.3c-5,0.9-10.1,1.5-15.1,2.5 c-6.7,1.4-12.7,6.2-12.8,15.4c-0.1,7.4,3.4,13.2,10.1,15.8c3.8,1.4,7.7,1.7,11.7,1.4c5.1-0.4,10-1.6,14.2-4.7 c0.8-0.6,1.5-1.2,2.2-1.8c0.4,1.8,0.8,3.6,1.1,5.2c5.3,0,10.5,0,15.8,0c-1.5-3-1.7-6.2-1.8-9.4 C272.9,481.8,272.9,471.1,273,460.5z M256.6,485.6c-1.4,4.3-5.1,7.1-9.9,7.3c-2.1,0.1-4.3-0.1-6.4-0.5c-2.9-0.6-4.7-2.5-5.1-5.5 c-0.4-3.1,0.5-5.7,3.2-7.5c2.6-1.7,5.6-2.1,8.6-2.5c1.9-0.3,3.8-0.5,5.7-1c1.5-0.4,3-1,4.7-1.5 C257.3,478.1,257.7,481.9,256.6,485.6z"></path> <path class="st2" d="M364.6,474.5c-2.5-2.7-5.6-4.3-9-5.2c-4.7-1.3-9.4-2.3-14.1-3.5c-2.3-0.6-4.6-1.6-6.8-2.6 c-1.3-0.6-2.1-1.8-2.2-3.4c-0.2-2.8,1.5-5.1,4.7-5.4c2.5-0.3,5.2-0.4,7.7,0c3.6,0.6,6.4,2,6.9,6.8c0,0.1,0.1,0.2,0.2,0.3 c4.9,0,9.7,0,14.8,0c-0.4-1.8-0.7-3.6-1.2-5.2c-2.3-6.4-7.2-9.8-13.5-11.5c-5.7-1.5-11.6-1.5-17.4-0.7c-3,0.4-6,1.2-8.7,2.6 c-6.3,3.3-9,8.6-8.8,15.5c0.1,5,2.6,8.5,6.8,10.9c3.6,2.1,7.7,2.9,11.7,4c4.5,1.2,9.1,2.3,13.5,3.9c5.2,1.9,4.2,7.6,0.9,9.8 c-3.2,2.2-6.8,2.4-10.5,1.9c-3.2-0.5-6.1-1.8-7.7-4.8c-0.8-1.3-1.1-2.9-1.6-4.4c-4.7,0-9.5,0-14.4,0c0,8,4.9,14.9,12.9,17.6 c8.4,2.9,16.9,3,25.4,0.7c7.6-2.1,12.8-6.8,13.9-15C368.3,482.2,367.9,478,364.6,474.5z"></path> <path class="st2" d="M302,428.3c-5.2,0-10.3,0-15.5,0c0,5.7,0,11.2,0,16.9c-3.2,0-6.3,0-9.4,0c0,3.5,0,6.9,0,10.4 c3.2,0,6.2,0,9.4,0c0,4.7,0,9.2,0,13.7c0,6.9-0.1,13.9,0.1,20.8c0.1,5.6,2.7,9.3,7.7,11c1.6,0.5,3.3,0.8,4.9,1 c4.7,0.6,9.4,0.4,14.2-0.2c0-4,0-8,0-12.1c-0.5,0.1-0.9,0.1-1.2,0.1c-2.2,0-4.4,0.1-6.6-0.1c-2-0.2-3-1.5-3.3-3.4 c-0.2-1.1-0.3-2.3-0.3-3.5c0-8.6,0-17.3,0-25.9c0-0.5,0-0.9,0-1.5c3.9,0,7.6,0,11.4,0c0-3.5,0-6.9,0-10.4c-3.8,0-7.5,0-11.4,0 C302,439.4,302,433.8,302,428.3z"></path> </g> </g> </g> </svg> 