<?xml version="1.0" encoding="UTF-8"?> <!-- Generator: Adobe Illustrator 26.4.1, SVG Export Plug-In . SVG Version: 6.00 Build 0) --> <svg xmlns="http://www.w3.org/2000/svg" xmlns:xlink="http://www.w3.org/1999/xlink" id="Слой_1" x="0px" y="0px" viewBox="0 0 1271.77 1771.31" style="enable-background:new 0 0 1271.77 1771.31;" xml:space="preserve"> <style type="text/css"> .st0{fill:#1D4687;} .st1{fill:#FFC000;} .st2{fill:none;} .st3{enable-background:new ;} .st4{fill:url(#SVGID_1_);} .st5{fill:url(#SVGID_00000135686304347477735810000017815805000958740398_);} .st6{fill:none;stroke:#000000;stroke-width:8;stroke-miterlimit:10;} .st7{fill:#FFFFFF;} .st8{fill:url(#SVGID_00000162338916398254093100000000449911884243161220_);} .st9{fill:#0054CE;} .st10{fill:#FF6700;} .st11{fill:#B2B2B2;} .st12{fill:url(#SVGID_00000049179698307007481370000015597554037566070162_);} .st13{fill:url(#SVGID_00000121992981627329111080000010765862186568437409_);} .st14{fill:url(#SVGID_00000171686140182142833580000003201174594198017442_);} .st15{fill:url(#SVGID_00000113341995758641530460000008758781506801212343_);} .st16{fill:url(#SVGID_00000094579276144210293810000001605480466924531585_);} .st17{fill:url(#SVGID_00000008139943285554246530000005078099396347856259_);} .st18{fill:url(#SVGID_00000034800157298351099940000000112056476141453500_);} .st19{fill:url(#SVGID_00000018204157313891769810000017194630579011334839_);} .st20{fill:url(#SVGID_00000075128502403812833380000000972336779554353566_);} .st21{fill:url(#SVGID_00000020391500620194672950000005710014517087731594_);} .st22{fill:url(#SVGID_00000084530298163488426300000010882880578194633615_);} .st23{fill:url(#SVGID_00000026140983163897339310000005677159123806632854_);} .st24{fill:url(#SVGID_00000077304351465109436380000003185933322607094180_);} .st25{fill:url(#SVGID_00000150780892714411705020000001507452119253150908_);} .st26{fill:url(#SVGID_00000150813809057196786760000005695922422038542737_);} </style> <g> <g> <path class="st0" d="M366.69,219.06V401.4c-15.89,0-31.78,0-47.67,0V262.04h-56.26V401.4c-15.89,0-31.78,0-47.67,0V219.06H366.69z "></path> <path class="st0" d="M484.16,217.24c37.51,0,78.66,20.32,85.7,69.03h-45.84c-6.51-18.75-20.32-26.05-39.85-26.05 c-27.61,0-45.58,19.8-45.58,50.01c0,26.31,17.71,49.49,45.58,49.49c19.8,0,35.42-9.12,40.37-28.91h45.85 c-7.03,51.84-47.41,72.41-86.22,72.41c-46.63,0-93.25-31.26-93.25-92.73C390.91,247.71,437.54,217.24,484.16,217.24z"></path> <path class="st0" d="M754.28,218.54h16.93V401.4h-47.67v-84.13l-38.81,40.63h-5.47l-38.81-40.63v84.13h-47.67V218.54h16.93 l72.41,78.93L754.28,218.54z"></path> </g> <linearGradient id="SVGID_1_" gradientUnits="userSpaceOnUse" x1="917.6442" y1="760.2501" x2="917.6442" y2="1795.3759"> <stop offset="0" style="stop-color:#0054CE"></stop> <stop offset="0.1345" style="stop-color:#0A4FB4"></stop> <stop offset="0.2834" style="stop-color:#134BA0"></stop> <stop offset="0.4528" style="stop-color:#194892"></stop> <stop offset="0.6583" style="stop-color:#1C468A"></stop> <stop offset="1" style="stop-color:#1D4687"></stop> </linearGradient> <path class="st4" d="M1120.19,1618.71c-24.22,47.6-48.32,94.98-72.96,143.41c-43.33-92.82-86.22-184.67-129.58-277.54 c-43.32,92.78-86.19,184.6-129.59,277.53c-24.56-48.28-48.65-95.63-72.96-143.41c-50.18,12.7-100.31,25.38-151.59,38.36 c51.51-110.35,102.56-219.72,153.85-329.62c-5.18-2.31-10.17-4.44-15.08-6.75c-8.02-3.78-16.11-7.46-23.96-11.58 c-21.51-11.28-33.94-29.22-37.53-53.1c-2.25-14.92-3.95-29.93-5.61-44.93c-2.42-22-12.84-40.7-23.6-59.39 c-5.56-9.67-10.83-19.59-15.22-29.84c-7.49-17.46-7.63-35.37,0.22-52.78c4.8-10.65,9.91-21.31,16.25-31.09 c15.61-24.09,23.03-50.45,24.77-78.82c0.52-8.48,2.02-16.93,3.49-25.32c4.02-23.03,16.41-40.14,37.17-50.96 c8.17-4.26,16.4-8.56,24.98-11.88c27.02-10.44,49.27-27.05,67.45-49.55c6.11-7.57,13.28-14.35,20.38-21.04 c18.55-17.46,40.81-20.94,64.98-16.39c13.78,2.6,27.52,5.38,41.29,8.02c20.19,3.86,39.91,0.43,59.68-3.58 c12.32-2.5,24.78-4.63,37.29-5.89c20.46-2.06,37.61,5.86,51.99,19.9c8.76,8.56,17.35,17.39,25.19,26.78 c14.6,17.49,32.81,29.62,53.49,38.58c10.41,4.51,20.68,9.38,30.83,14.45c24.17,12.09,36.4,32.38,39.56,58.69 c1.56,13.05,3.21,26.09,4.59,39.16c2.31,22.01,12.64,40.77,23.45,59.44c5.24,9.04,10.14,18.33,14.47,27.84 c8.89,19.57,8.61,39.3-0.75,58.67c-4.32,8.94-8.57,18.03-14.03,26.27c-16.4,24.71-23.82,52-25.7,81.26 c-0.6,9.35-2.36,18.67-4.25,27.87c-4.6,22.37-17.61,38.43-37.99,48.48c-12.07,5.95-24.32,11.55-37.14,17.61 c51.06,109.4,102.12,218.8,153.78,329.47C1220.61,1644.11,1170.56,1631.45,1120.19,1618.71z M917.48,896.11 c-109.93,0.35-199.94,89.66-199.64,198.11c0.31,112.36,89.09,201.61,200.25,201.28c109.65-0.32,199.94-90.52,199.33-199.15 C1116.79,985.2,1027.49,895.76,917.48,896.11z"></path> <g> <linearGradient id="SVGID_00000054237971942394572880000007073434918893016983_" gradientUnits="userSpaceOnUse" x1="493.1482" y1="-23.069" x2="493.1482" y2="1349.2593"> <stop offset="0" style="stop-color:#0054CE"></stop> <stop offset="0.1345" style="stop-color:#0A4FB4"></stop> <stop offset="0.2834" style="stop-color:#134BA0"></stop> <stop offset="0.4528" style="stop-color:#194892"></stop> <stop offset="0.6583" style="stop-color:#1C468A"></stop> <stop offset="1" style="stop-color:#1D4687"></stop> </linearGradient> <path style="fill:url(#SVGID_00000054237971942394572880000007073434918893016983_);" d="M215.09,629.12 c185.68,0,370.79,0,556.12,0c0-33.46,0-66.58,0-100c-185.95,0-370.9,0-556.12,0C215.09,562.59,215.09,595.81,215.09,629.12z"></path> <linearGradient id="SVGID_00000176757239221079181820000011797801982474330805_" gradientUnits="userSpaceOnUse" x1="492.9896" y1="-23.069" x2="492.9896" y2="1349.2593"> <stop offset="0" style="stop-color:#0054CE"></stop> <stop offset="0.1345" style="stop-color:#0A4FB4"></stop> <stop offset="0.2834" style="stop-color:#134BA0"></stop> <stop offset="0.4528" style="stop-color:#194892"></stop> <stop offset="0.6583" style="stop-color:#1C468A"></stop> <stop offset="1" style="stop-color:#1D4687"></stop> </linearGradient> <path style="fill:url(#SVGID_00000176757239221079181820000011797801982474330805_);" d="M0.25,0v322.32 c-0.21,0.93-0.32,1.93-0.32,3.03C0.01,469.41,0,1197.14,0,1341.2v5.62h620.91l1.67-3.58c-24.98-22.73-41.1-53.12-46.42-88.43 c-1.37-9.08-2.53-18.1-3.58-26.9H119.11V201.3c-0.04,0.03-0.07,0.06-0.1,0.09v-82.43h747.82v7.17 c0,131.74-0.01,398.39,0.04,591.12c2.8,0.4,5.62,0.86,8.44,1.39c7.5,1.41,14.96,2.88,22.17,4.3c5.52,1.08,11.23,2.2,16.75,3.26 c0.06,0.01,0.58,0.1,1.81,0.1c5.39,0,14.19-1.69,22.02-3.28c16.18-3.28,29.88-5.42,43.11-6.76c1.61-0.16,3.22-0.29,4.83-0.39 c0.04-217.62,0.04-543.66,0.04-710.55V0H0.25z"></path> <linearGradient id="SVGID_00000012472180138565355020000018421368838508315778_" gradientUnits="userSpaceOnUse" x1="393.5297" y1="-23.069" x2="393.5297" y2="1349.2593"> <stop offset="0" style="stop-color:#0054CE"></stop> <stop offset="0.1345" style="stop-color:#0A4FB4"></stop> <stop offset="0.2834" style="stop-color:#134BA0"></stop> <stop offset="0.4528" style="stop-color:#194892"></stop> <stop offset="0.6583" style="stop-color:#1C468A"></stop> <stop offset="1" style="stop-color:#1D4687"></stop> </linearGradient> <path style="fill:url(#SVGID_00000012472180138565355020000018421368838508315778_);" d="M215.08,1064.3h316.05 c2.11-10.58,5.46-21.01,10.02-31.13c5.41-12,12.17-26.16,21.24-40.15c5.23-8.08,8.32-17.3,9.58-28.72H215.08V1064.3z"></path> <linearGradient id="SVGID_00000021806297676023340360000012339100200111391679_" gradientUnits="userSpaceOnUse" x1="483.4996" y1="-23.069" x2="483.4996" y2="1349.2593"> <stop offset="0" style="stop-color:#0054CE"></stop> <stop offset="0.1345" style="stop-color:#0A4FB4"></stop> <stop offset="0.2834" style="stop-color:#134BA0"></stop> <stop offset="0.4528" style="stop-color:#194892"></stop> <stop offset="0.6583" style="stop-color:#1C468A"></stop> <stop offset="1" style="stop-color:#1D4687"></stop> </linearGradient> <path style="fill:url(#SVGID_00000021806297676023340360000012339100200111391679_);" d="M215.08,846.71h402.29 c10.76-10.81,23.37-20.07,37.63-27.49l0.33-0.17c8.58-4.47,19.26-10.04,31.5-14.77c11.37-4.39,20.44-11.11,28.56-21.16 c9.41-11.66,19.45-21.1,26.78-28c3.15-2.97,6.4-5.77,9.74-8.41H215.08V846.71z"></path> </g> <path d="M771.2,845.26v1.45h-1.4C770.27,846.23,770.74,845.75,771.2,845.26z"></path> <polygon class="st0" points="1064.88,1032.35 1015.19,982.66 871.27,1126.58 811.13,1066.43 761.44,1116.13 871.33,1226.01 921.02,1176.32 920.97,1176.27 "></polygon> </g> </svg> 